<svg width="375" height="116" viewBox="0 0 375 116" fill="none" xmlns="http://www.w3.org/2000/svg">
<path fill-rule="evenodd" clip-rule="evenodd" d="M164.825 35.7192C161.2 35.7192 156.897 36.4903 152.197 41.9579V26.6566C152.197 22.7912 149.07 19.6468 145.225 19.6468C141.381 19.6468 138.254 22.7912 138.254 26.6566V76.5561C138.254 80.4214 141.381 83.5658 145.225 83.5658C149.07 83.5658 152.197 80.4214 152.197 76.5561V57.1891C152.197 51.6213 154.826 48.5471 159.616 48.5471C164.307 48.5471 166.777 51.5312 166.777 57.1891V76.5561C166.777 80.4214 169.904 83.5658 173.748 83.5658C177.592 83.5658 180.719 80.4214 180.719 76.5561V53.1234C180.709 42.2283 174.774 35.7192 164.825 35.7192ZM204.861 36.0599C199.184 36.0599 194.683 36.8009 190.271 38.4632C187.98 39.3244 186.446 41.5475 186.446 43.9909C186.446 47.2555 189.026 49.809 192.322 49.809C192.999 49.809 193.567 49.7089 194.344 49.4485C197.023 48.6073 199.851 48.2068 203.008 48.2068C210.497 48.2068 212.091 52.3626 212.111 55.8775C209.511 55.0263 206.235 54.2452 201.664 54.2452C189.753 54.2452 182.921 59.7228 182.921 69.2861V69.4564C182.921 78.0984 189.374 83.9065 198.975 83.9065C204.383 83.9065 208.715 82.2542 212.171 78.8695C212.758 81.3429 215.118 83.576 218.743 83.576C222.558 83.576 225.545 80.6119 225.545 76.8266V56.1679C225.545 49.6688 223.852 44.6618 220.496 41.2972C217.031 37.8223 211.772 36.0599 204.861 36.0599ZM202.839 73.8625C198.885 73.8625 196.435 71.9799 196.435 68.9457V68.7754C196.435 65.1604 199.443 63.0975 204.691 63.0975C207.38 63.0975 210.059 63.6283 212.28 64.5896V66.5023C212.28 70.8283 208.396 73.8625 202.839 73.8625ZM244.228 42.0786C247.834 37.8026 252.275 35.7197 257.773 35.7197C268.26 35.7197 278.866 43.9612 278.866 59.7232V59.8934C278.866 67.1535 276.645 73.3021 272.452 77.6882C268.618 81.7038 263.41 83.9069 257.773 83.9069C252.345 83.9069 248.033 82.0443 244.298 78.0787V90.0955C244.298 93.9609 241.171 97.1052 237.327 97.1052C233.483 97.1052 230.356 93.9609 230.356 90.0955V43.07C230.356 39.2046 233.483 36.0602 237.327 36.0602C240.842 36.0602 243.75 38.6839 244.228 42.0786ZM264.933 59.7232C264.933 52.9237 260.442 47.7866 254.486 47.7866C248.491 47.7866 244.129 52.8035 244.129 59.7232V59.8934C244.129 66.813 248.481 71.83 254.486 71.83C260.541 71.83 264.933 66.813 264.933 59.8934V59.7232ZM309.5 35.7197C304.002 35.7197 299.56 37.8026 295.955 42.0786C295.477 38.6839 292.569 36.0602 289.054 36.0602C285.21 36.0602 282.082 39.2046 282.082 43.07V90.0955C282.082 93.9609 285.21 97.1052 289.054 97.1052C292.898 97.1052 296.025 93.9609 296.025 90.0955V78.0787C299.76 82.0443 304.072 83.9069 309.5 83.9069C315.136 83.9069 320.345 81.7038 324.179 77.6882C328.372 73.3021 330.593 67.1535 330.593 59.8934V59.7232C330.593 43.9612 319.986 35.7197 309.5 35.7197ZM306.213 47.7866C312.169 47.7866 316.66 52.9237 316.66 59.7232V59.8934C316.66 66.813 312.268 71.83 306.213 71.83C300.208 71.83 295.856 66.813 295.856 59.8934V59.7232C295.856 52.8035 300.218 47.7866 306.213 47.7866ZM361.695 41.3474C362.989 37.8826 365.3 36.06 368.377 36.06C372.092 36.06 375.01 38.914 375 42.539C375 43.5905 374.661 45.1126 374.363 45.8136L358.637 83.7865C354.684 93.4099 350.561 96.8246 342.882 96.8246C340.173 96.8246 338.092 96.4641 335.702 95.6029C334.059 95.0021 331.29 93.4399 331.29 89.7348C331.29 86.0897 334.148 83.9167 336.907 83.9167C338.002 83.9167 338.66 84.1069 339.187 84.2872C340.273 84.6276 340.87 84.7678 341.697 84.7678C343.788 84.7678 344.665 84.4274 345.721 82.3945L346.039 81.6335L330.742 45.9939C330.394 45.1126 330.025 43.7507 330.025 42.7994C330.025 38.954 332.983 36.05 336.907 36.05C340.143 36.05 342.334 37.7524 343.589 41.2573L352.801 66.1619L361.695 41.3474Z" fill="white"/>
<path d="M99.9592 29.4367V70.396C99.9592 86.6526 86.7717 99.8327 70.5057 99.8327H67.5266L52.3133 115.027C51.7174 115.623 50.8932 116 49.9796 116C49.1355 116 48.3709 115.692 47.785 115.176L47.5268 114.918L47.5169 114.908L32.4326 99.8327H29.4436C13.1875 99.8327 0 86.6526 0 70.396V29.4367C0 13.18 13.1876 0 29.4535 0H70.5057C86.7717 0 99.9592 13.18 99.9592 29.4367Z" fill="#FFD666"/>
<path d="M23.2734 56.7413C20.3737 56.7413 18.721 60.0436 20.4034 62.428C26.9451 71.7164 37.7621 77.7723 49.9844 77.7723C62.2067 77.7723 73.0138 71.7064 79.5555 62.428C81.2379 60.0436 79.5852 56.7413 76.6855 56.7413H23.2734Z" fill="white"/>
<path d="M40.2562 42.6845H22.759V33.865C22.759 28.9964 26.6781 25.0456 31.5076 25.0456C36.3372 25.0456 40.2562 28.9964 40.2562 33.865V42.6845Z" fill="white"/>
<path d="M77.2106 42.6845H59.7134V33.865C59.7134 28.9964 63.6325 25.0456 68.462 25.0456C73.2916 25.0456 77.2106 28.9964 77.2106 33.865V42.6845Z" fill="white"/>
</svg>
